<?xml version="1.0" encoding="us-ascii" standalone="no"?><svg xmlns="http://www.w3.org/2000/svg" xmlns:xlink="http://www.w3.org/1999/xlink" contentStyleType="text/css" height="381px" preserveAspectRatio="none" style="width:755px;height:381px;background:#FFFFFF;" version="1.1" viewBox="0 0 755 381" width="755px" zoomAndPan="magnify"><defs/><g><!--cluster 6ebb7423072c5943f52c11274fd71b0b--><g id="cluster_6ebb7423072c5943f52c11274fd71b0b"><polygon fill="none" points="16,16,26,6,356,6,356,163.49,346,173.49,16,173.49,16,16" style="stroke:#181818;stroke-width:1.0;"/><line style="stroke:#181818;stroke-width:1.0;" x1="346" x2="356" y1="16" y2="6"/><line style="stroke:#181818;stroke-width:1.0;" x1="16" x2="346" y1="16" y2="16"/><line style="stroke:#181818;stroke-width:1.0;" x1="346" x2="346" y1="16" y2="173.49"/><text fill="#000000" font-family="sans-serif" font-size="14" font-weight="bold" lengthAdjust="spacing" textLength="83" x="140.5" y="31.9951">Dynamodb</text></g><!--cluster ba39a5f0aa547715c4df694144393752--><g id="cluster_ba39a5f0aa547715c4df694144393752"><polygon fill="none" points="380,16,390,6,738,6,738,163.49,728,173.49,380,173.49,380,16" style="stroke:#181818;stroke-width:1.0;"/><line style="stroke:#181818;stroke-width:1.0;" x1="728" x2="738" y1="16" y2="6"/><line style="stroke:#181818;stroke-width:1.0;" x1="380" x2="728" y1="16" y2="16"/><line style="stroke:#181818;stroke-width:1.0;" x1="728" x2="728" y1="16" y2="173.49"/><text fill="#000000" font-family="sans-serif" font-size="14" font-weight="bold" lengthAdjust="spacing" textLength="92" x="509" y="31.9951">Apigateway</text></g><!--cluster 04a7da3c5b04cad85da1eebb92315b8b--><g id="cluster_04a7da3c5b04cad85da1eebb92315b8b"><polygon fill="none" points="189,207.49,199,197.49,557,197.49,557,354.97,547,364.97,189,364.97,189,207.49" style="stroke:#181818;stroke-width:1.0;"/><line style="stroke:#181818;stroke-width:1.0;" x1="547" x2="557" y1="207.49" y2="197.49"/><line style="stroke:#181818;stroke-width:1.0;" x1="189" x2="547" y1="207.49" y2="207.49"/><line style="stroke:#181818;stroke-width:1.0;" x1="547" x2="547" y1="207.49" y2="364.97"/><text fill="#000000" font-family="sans-serif" font-size="14" font-weight="bold" lengthAdjust="spacing" textLength="61" x="338.5" y="223.4851">Lambda</text></g><!--entity d126ec0fe18c30b2d0f0b9507154a858--><g id="elem_d126ec0fe18c30b2d0f0b9507154a858"><rect fill="#F1F1F1" height="111.4844" rx="2.5" ry="2.5" style="stroke:#181818;stroke-width:0.5;" width="308" x="32" y="46"/><rect fill="#F1F1F1" height="10" style="stroke:#181818;stroke-width:0.5;" width="15" x="320" y="51"/><rect fill="#F1F1F1" height="2" style="stroke:#181818;stroke-width:0.5;" width="4" x="318" y="53"/><rect fill="#F1F1F1" height="2" style="stroke:#181818;stroke-width:0.5;" width="4" x="318" y="57"/><text fill="#000000" font-family="sans-serif" font-size="14" font-weight="bold" lengthAdjust="spacing" textLength="149" x="47" y="78.9951">dynamodb_Visitors</text><text fill="#000000" font-family="sans-serif" font-size="14" lengthAdjust="spacing" textLength="4" x="47" y="95.292">&#160;</text><text fill="#000000" font-family="sans-serif" font-size="14" lengthAdjust="spacing" textLength="268" x="47" y="111.5889">terraform name: basic-dynamodb-table</text><text fill="#000000" font-family="sans-serif" font-size="14" lengthAdjust="spacing" textLength="254" x="47" y="127.8857">terraform type: aws_dynamodb_table</text><text fill="#000000" font-family="sans-serif" font-size="14" lengthAdjust="spacing" textLength="4" x="47" y="144.1826">&#160;</text></g><!--entity 04ec2c3a2a53b175255ef8fd5551086a--><g id="elem_04ec2c3a2a53b175255ef8fd5551086a"><rect fill="#F1F1F1" height="111.4844" rx="2.5" ry="2.5" style="stroke:#181818;stroke-width:0.5;" width="325" x="396.5" y="46"/><rect fill="#F1F1F1" height="10" style="stroke:#181818;stroke-width:0.5;" width="15" x="701.5" y="51"/><rect fill="#F1F1F1" height="2" style="stroke:#181818;stroke-width:0.5;" width="4" x="699.5" y="53"/><rect fill="#F1F1F1" height="2" style="stroke:#181818;stroke-width:0.5;" width="4" x="699.5" y="57"/><text fill="#000000" font-family="sans-serif" font-size="14" font-weight="bold" lengthAdjust="spacing" textLength="210" x="411.5" y="78.9951">apigateway_visitorCounter</text><text fill="#000000" font-family="sans-serif" font-size="14" lengthAdjust="spacing" textLength="4" x="411.5" y="95.292">&#160;</text><text fill="#000000" font-family="sans-serif" font-size="14" lengthAdjust="spacing" textLength="211" x="411.5" y="111.5889">terraform name: visitorCounter</text><text fill="#000000" font-family="sans-serif" font-size="14" lengthAdjust="spacing" textLength="285" x="411.5" y="127.8857">terraform type: aws_api_gateway_rest_api</text><text fill="#000000" font-family="sans-serif" font-size="14" lengthAdjust="spacing" textLength="4" x="411.5" y="144.1826">&#160;</text></g><!--entity 7f21dbb469be7d85caf8a23b51834721--><g id="elem_7f21dbb469be7d85caf8a23b51834721"><rect fill="#F1F1F1" height="111.4844" rx="2.5" ry="2.5" style="stroke:#181818;stroke-width:0.5;" width="335" x="205.5" y="237.49"/><rect fill="#F1F1F1" height="10" style="stroke:#181818;stroke-width:0.5;" width="15" x="520.5" y="242.49"/><rect fill="#F1F1F1" height="2" style="stroke:#181818;stroke-width:0.5;" width="4" x="518.5" y="244.49"/><rect fill="#F1F1F1" height="2" style="stroke:#181818;stroke-width:0.5;" width="4" x="518.5" y="248.49"/><text fill="#000000" font-family="sans-serif" font-size="14" font-weight="bold" lengthAdjust="spacing" textLength="145" x="220.5" y="270.4851">lambda_write_item</text><text fill="#000000" font-family="sans-serif" font-size="14" lengthAdjust="spacing" textLength="4" x="220.5" y="286.782">&#160;</text><text fill="#000000" font-family="sans-serif" font-size="14" lengthAdjust="spacing" textLength="295" x="220.5" y="303.0789">terraform name: DynamoDBVisitorFunction</text><text fill="#000000" font-family="sans-serif" font-size="14" lengthAdjust="spacing" textLength="253" x="220.5" y="319.3757">terraform type: aws_lambda_function</text><text fill="#000000" font-family="sans-serif" font-size="14" lengthAdjust="spacing" textLength="4" x="220.5" y="335.6726">&#160;</text></g><!--link d126ec0fe18c30b2d0f0b9507154a858 to 7f21dbb469be7d85caf8a23b51834721--><g id="link_d126ec0fe18c30b2d0f0b9507154a858_7f21dbb469be7d85caf8a23b51834721"><path codeLine="29" d="M240.34,157.8 C264.93,182.72 293.92,212.1 318.53,237.03 " fill="none" id="d126ec0fe18c30b2d0f0b9507154a858-7f21dbb469be7d85caf8a23b51834721" style="stroke:#181818;stroke-width:1.0;"/></g><!--link 04ec2c3a2a53b175255ef8fd5551086a to 7f21dbb469be7d85caf8a23b51834721--><g id="link_04ec2c3a2a53b175255ef8fd5551086a_7f21dbb469be7d85caf8a23b51834721"><path codeLine="30" d="M504.95,157.8 C480.5,182.72 451.65,212.1 427.18,237.03 " fill="none" id="04ec2c3a2a53b175255ef8fd5551086a-7f21dbb469be7d85caf8a23b51834721" style="stroke:#181818;stroke-width:1.0;"/></g><!--SRC=[ZPBBQiCm44Nt_WhHPI2WrrXoTttGLTVTb69cz2Y6s0gsqZIK_djLvq5R0kb26-bmDOSxk5gbRT-zTyDhDIGVsDNzRi0-URfYEB4w41aj5JVIGQDL1Ec4a4P7RmHnOXyLSwbVfo4CcNaXw-1u3C8wnKbw7Zarm8q0ZHOiUwuM2t_8Rv-wgSjfd1QBgifX736ciMVbCLmpmgbpooEwp4Yhy0FAktM1S3krfxGzKhrKdmUFctNtYZbiSJUR4Ae68N94qAOCvBIFTQE5rgfH1kHl4ww3aqwXH50aoZD0Y3Pw013SrZYRuEc7zctlSfSsGvdodD5lugnBoMkFWMEOylV5JwD7xCdZRCCr6e_A0N7jq5lmA4Bfgf5A0Da_lPWeXIVITKF15DXXj2WLWR1A6obcczMStcx7BeUsdFwSnNuvxcyFtJri1fUxD9pLEGJ68pERN5oHfLzUdBUwMCz_Khu0]--></g></svg>